<?xml version="1.0" standalone="no"?>
<!DOCTYPE svg PUBLIC "-//W3C//DTD SVG 20010904//EN"
 "http://www.w3.org/TR/2001/REC-SVG-20010904/DTD/svg10.dtd">
<svg version="1.0" xmlns="http://www.w3.org/2000/svg"
 width="243.000000pt" height="243.000000pt" viewBox="0 0 243.000000 243.000000"
 preserveAspectRatio="xMidYMid meet">
<metadata>
Created by potrace 1.11, written by Peter Selinger 2001-2013
</metadata>
<g transform="translate(0.000000,243.000000) scale(0.100000,-0.100000)"
fill="#000000" stroke="none">
<path d="M345 2141 c-76 -19 -174 -101 -213 -178 -52 -101 -55 -131 -55 -678
0 -280 3 -539 7 -574 8 -75 50 -190 96 -261 60 -94 145 -148 236 -151 27 -1
275 -1 551 0 l502 1 -1 173 -1 174 -130 -4 c-159 -4 -274 14 -393 61 -190 77
-322 214 -375 387 -21 68 -28 183 -16 251 16 89 75 194 148 266 85 84 247 160
374 178 28 3 59 8 70 11 28 6 174 4 257 -3 l68 -6 -2 179 -3 178 -545 2 c-300
0 -558 -2 -575 -6z"/>
<path d="M1527 2143 c-2 -4 -4 -88 -4 -185 l0 -178 51 -14 c132 -39 191 -142
135 -236 -25 -42 -51 -65 -104 -89 -66 -31 -96 -33 -381 -33 -198 0 -274 -3
-275 -12 -6 -49 -3 -329 3 -332 4 -3 128 -5 275 -5 272 0 343 -7 376 -37 49
-44 51 -58 52 -380 l0 -303 25 -19 c24 -18 45 -20 363 -20 l338 0 -15 29 c-29
55 -56 177 -61 271 -3 52 -7 142 -10 199 -6 113 -16 163 -45 228 -23 49 -78
106 -121 123 -16 7 -28 16 -27 21 2 4 26 23 53 41 111 76 165 210 167 419 3
232 -83 423 -220 491 -45 22 -59 23 -308 26 -144 2 -264 0 -267 -5z"/>
</g>
</svg>
